# Blender v2.79 (sub 0) OBJ File: 'farm_tree_01.blend'
# www.blender.org
o farm_tree_farm_tree_mesh
v -0.071436 3.367910 0.045401
v -0.102316 3.101491 0.183671
v -0.013871 3.109439 0.192761
v 0.063007 3.116514 0.148016
v 0.098952 3.120014 0.066526
v 0.080235 3.118602 -0.020581
v 0.014004 3.112818 -0.080035
v -0.074442 3.104871 -0.089126
v -0.151320 3.097796 -0.044380
v -0.187265 3.094296 0.037110
v -0.168547 3.095707 0.124217
v -0.262947 2.950603 0.175281
v -0.145992 2.960817 0.280269
v -0.263336 2.849412 0.173627
v -0.145950 2.859664 0.279000
v -0.296000 2.948110 0.021461
v -0.296510 2.846910 0.019240
v -0.232525 2.954291 -0.122439
v -0.232802 2.853114 -0.125190
v -0.096770 2.966784 -0.201453
v -0.096546 2.865654 -0.204496
v 0.059414 2.980818 -0.185401
v 0.060213 2.879739 -0.188384
v 0.176369 2.991032 -0.080414
v 0.177598 2.889990 -0.083010
v 0.209422 2.993525 0.073407
v 0.210773 2.892492 0.071377
v 0.145947 2.987344 0.217306
v 0.147065 2.886289 0.215806
v 0.010191 2.974850 0.296321
v 0.010809 2.873749 0.295112
v -0.256435 -0.004486 0.133242
v -0.149749 0.569875 0.065579
v -0.129128 0.569875 -0.121540
v -0.220508 -0.004486 -0.207805
v 0.042520 -0.004486 0.291702
v 0.021840 0.569875 0.172746
v -0.134232 1.751990 0.055436
v -0.115757 1.751990 -0.112213
v 0.019502 1.751990 0.124813
v 0.055204 0.569875 -0.159751
v 0.100651 -0.004486 -0.274380
v 0.148508 0.569875 0.013889
v 0.263212 -0.004486 0.022326
v 0.049396 1.751990 -0.146449
v 0.132991 1.789335 0.000041
v 0.132991 1.751990 0.000041
v 0.326822 2.077073 -0.376624
v 0.164827 2.423085 0.022700
v 0.475000 2.210883 -0.016093
v 0.601643 1.884402 -0.381098
v 0.800970 1.949071 -0.029041
v 0.380375 2.089221 0.305763
v 0.655421 1.910058 0.333660
v 0.656062 2.067057 0.638956
v 0.371850 2.233458 0.381072
v 0.104975 2.109613 0.583029
v 0.311903 2.011606 0.819891
v 0.089295 2.357760 0.163236
v 0.761597 1.931949 0.266846
v 0.530768 2.044862 0.050888
v -0.207996 2.051086 -0.501236
v 0.042831 2.387885 -0.141961
v 0.173788 2.192708 -0.437761
v -0.066147 1.873509 -0.748246
v 0.336391 1.948845 -0.736192
v 0.405375 2.066139 -0.197564
v 0.574782 1.902062 -0.427583
v -0.629499 1.948845 0.713018
v -0.421577 2.192708 0.444189
v -0.612091 2.066139 0.170270
v -0.815868 1.902062 0.370474
v -0.245318 2.387885 0.172932
v -0.233981 1.873509 0.788829
v -0.054713 2.051086 0.567474
v -0.566905 2.051086 0.310537
v -0.258341 2.387885 -0.000560
v -0.572808 2.192708 -0.076443
v -0.835320 1.873509 0.215203
v -0.895528 1.948845 -0.182989
v -0.377954 2.066139 -0.347290
v -0.634585 1.902062 -0.472780
v -0.341026 2.283376 -0.505775
v -0.204329 2.484263 -0.261455
v 0.064753 2.379999 -0.317500
v -0.021263 2.244838 -0.536542
v -0.055579 2.645044 -0.040351
v -0.526076 2.221316 -0.230435
v -0.416121 2.367600 -0.023148
v -0.097186 2.367600 0.409078
v -0.075432 2.645044 0.048782
v -0.311280 2.484263 0.172837
v -0.315115 2.221316 0.496053
v -0.568909 2.283376 0.282406
v -0.337999 2.379999 -0.100718
v -0.565036 2.244838 -0.038809
v 0.399172 2.283376 -0.457247
v 0.202813 2.484263 -0.257693
v 0.331855 2.379999 -0.015011
v 0.518113 2.244838 -0.158839
v 0.032115 2.645044 -0.053057
v 0.083073 2.221316 -0.557936
v -0.085205 2.367600 -0.394410
v 0.262664 2.414636 0.278121
v -0.120567 2.647582 0.199810
v -0.025392 2.481194 0.445006
v 0.323468 2.259822 0.499011
v 0.056873 2.271363 0.705655
v -0.281809 2.342752 0.406258
v -0.248671 2.195052 0.631500
v 0.531882 2.283562 0.277026
v 0.292363 2.499236 0.155166
v 0.094834 2.399014 0.348440
v 0.281313 2.251424 0.479169
v 0.053799 2.674041 0.058239
v 0.530270 2.230290 -0.056241
v 0.330927 2.389006 -0.163612
v -0.243937 2.701033 -0.151698
v -0.046939 3.042424 0.002138
v -0.019275 2.833056 -0.177046
v -0.202750 2.510936 -0.305708
v 0.025316 2.574741 -0.360934
v 0.145218 2.713019 -0.073103
v 0.204499 2.536249 -0.222093
v 0.396117 2.560130 -0.105106
v 0.230901 2.811447 -0.006417
v 0.245996 2.645634 0.175551
v 0.394931 2.468730 0.116269
v 0.078370 3.010734 0.098609
v 0.211247 2.546307 -0.254196
v 0.069786 2.731730 -0.176666
v -0.334482 2.675394 0.170882
v -0.119668 3.007694 0.035069
v -0.287589 2.815124 -0.048647
v -0.473844 2.500188 0.082148
v -0.456195 2.574518 -0.150768
v -0.142280 2.690245 -0.176466
v -0.271067 2.528360 -0.280717
v 0.207768 2.574518 0.392361
v 0.090862 2.815124 0.233649
v -0.092216 2.690245 0.296379
v -0.012931 2.528360 0.441872
v -0.032432 3.007694 0.092213
v 0.312925 2.500188 0.183787
v 0.217946 2.675394 0.048605
v -0.026384 2.675394 0.337305
v -0.096721 3.007694 0.093086
v -0.224047 2.815124 0.230904
v -0.150543 2.500188 0.446300
v -0.369235 2.574518 0.364234
v -0.306142 2.690245 0.055653
v -0.442243 2.528360 0.150156
v 0.399968 2.119586 0.492666
v -0.035559 2.348925 0.241376
v 0.017749 2.233024 0.596998
v 0.418276 2.008070 0.808732
v 0.051655 2.070115 0.980769
v -0.279223 2.045046 0.535205
v -0.294826 1.941728 0.847631
v -0.365880 1.923143 -0.786574
v -0.247828 2.138707 -0.448099
v 0.083454 2.008057 -0.471100
v 0.022243 1.867855 -0.762861
v -0.111447 2.307459 -0.138802
v -0.644436 1.829284 -0.501172
v -0.551969 1.983167 -0.217555
v -0.722515 1.704754 -0.281486
v -0.133131 2.017790 -0.186732
v -0.315599 1.854895 -0.558873
v -0.846229 1.556212 -0.622729
v -0.473543 1.646814 -0.966119
v 0.127633 1.728781 -0.586546
v 0.045736 1.593445 -0.937588
v 0.085087 1.788684 1.160314
v 0.039724 1.945939 0.698568
v -0.357602 1.764486 0.624220
v -0.378479 1.664754 1.000125
v -0.031598 2.057817 0.270691
v 0.575598 1.728792 0.953322
v 0.551104 1.836439 0.573038
v -1.182172 1.671623 -0.239897
v -0.750397 1.907022 -0.111703
v -0.489697 1.784846 -0.437581
v -0.833050 1.626465 -0.588568
v -0.329664 2.095425 -0.020402
v -1.101617 1.598902 0.239200
v -0.742500 1.770316 0.353904
v -0.057226 1.770316 0.663045
v -0.312240 2.095425 0.188340
v -0.548061 1.907022 0.514711
v -0.297072 1.598902 0.929375
v -0.826244 1.671623 0.838161
v -0.802954 1.784846 0.185137
v -1.075593 1.626465 0.426019
v 0.466042 1.671623 -0.905500
v 0.248492 1.907022 -0.546434
v 0.558337 1.784846 -0.257434
v 0.784991 1.626465 -0.534187
v 0.073282 2.095425 -0.190533
v -0.072522 1.598902 -0.920003
v -0.262306 1.770316 -0.622806
v 0.726105 1.764308 0.041499
v 0.135446 2.066346 0.176674
v 0.513484 1.946358 0.438770
v 1.034936 1.655314 0.301336
v 0.893738 1.785733 0.749051
v 0.156425 1.826811 0.681761
v 0.433279 1.732206 0.966749
v 1.087613 1.671842 -0.054670
v 0.651491 1.924567 -0.039091
v 0.524889 1.807127 0.348159
v 0.892880 1.634183 0.381724
v 0.236503 2.129403 0.007584
v 0.820930 1.609417 -0.478258
v 0.453239 1.795400 -0.472875
vt 0.983126 0.936612
vt 0.953952 0.875078
vt 0.972547 0.870432
vt 0.954065 0.875612
vt 0.982803 0.937606
vt 0.971552 0.871036
vt 0.936213 0.886097
vt 0.921967 0.902636
vt 0.911879 0.919249
vt 0.913925 0.936965
vt 0.912533 0.919721
vt 0.913920 0.936478
vt 0.922469 0.902211
vt 0.936556 0.885993
vt 0.927319 0.827198
vt 0.895915 0.846646
vt 0.904399 0.791534
vt 0.871180 0.875080
vt 0.863616 0.816721
vt 0.860704 0.910679
vt 0.820081 0.900724
vt 0.873402 0.945961
vt 0.830848 0.962098
vt 0.860283 0.909808
vt 0.819737 0.899587
vt 0.873902 0.945772
vt 0.871984 0.874661
vt 0.833184 0.852557
vt 0.896376 0.846569
vt 0.864505 0.816550
vt 0.927349 0.827014
vt 0.968364 0.822866
vt 0.904391 0.790986
vt 0.968705 0.822371
vt 0.959858 0.784508
vt 0.674942 0.181057
vt 0.634822 0.073713
vt 0.701788 0.079253
vt 0.626283 0.176760
vt 0.670981 0.358952
vt 0.626283 0.176760
vt 0.625976 0.357907
vt 0.549439 0.071606
vt 0.549439 0.071606
vt 0.560708 0.178516
vt 0.625976 0.357907
vt 0.560708 0.178516
vt 0.563387 0.357480
vt 0.480092 0.076648
vt 0.518741 0.357523
vt 0.509832 0.187055
vt 0.998343 0.654440
vt 0.927488 0.750547
vt 0.905724 0.668780
vt 0.975076 0.588182
vt 0.876680 0.587191
vt 0.803267 0.691307
vt 0.773385 0.623645
vt 0.905724 0.668780
vt 0.773385 0.623645
vt 0.876680 0.587191
vt 0.927488 0.750547
vt 0.803267 0.691307
vt 0.975076 0.588182
vt 0.998343 0.654440
vt 0.998343 0.654440
vt 0.927488 0.750547
vt 0.905724 0.668780
vt 0.975076 0.588182
vt 0.876680 0.587191
vt 0.803267 0.691307
vt 0.773385 0.623645
vt 0.905724 0.668780
vt 0.773385 0.623645
vt 0.876680 0.587191
vt 0.927488 0.750547
vt 0.803267 0.691307
vt 0.975076 0.588182
vt 0.998343 0.654440
vt 0.998343 0.654440
vt 0.927488 0.750547
vt 0.905724 0.668780
vt 0.975076 0.588182
vt 0.876680 0.587191
vt 0.803267 0.691307
vt 0.773385 0.623645
vt 0.905724 0.668780
vt 0.773385 0.623645
vt 0.876680 0.587191
vt 0.927488 0.750547
vt 0.803267 0.691307
vt 0.975076 0.588182
vt 0.998343 0.654440
vt 0.998343 0.654440
vt 0.927488 0.750547
vt 0.905724 0.668780
vt 0.975076 0.588182
vt 0.876680 0.587191
vt 0.803267 0.691307
vt 0.773385 0.623645
vt 0.905724 0.668780
vt 0.773385 0.623645
vt 0.876680 0.587191
vt 0.927488 0.750547
vt 0.803267 0.691307
vt 0.975076 0.588182
vt 0.998343 0.654440
vt 0.998343 0.654440
vt 0.927488 0.750547
vt 0.905724 0.668780
vt 0.975076 0.588182
vt 0.876680 0.587191
vt 0.803267 0.691307
vt 0.773385 0.623645
vt 0.905724 0.668780
vt 0.773385 0.623645
vt 0.876680 0.587191
vt 0.927488 0.750547
vt 0.803267 0.691307
vt 0.975076 0.588182
vt 0.998343 0.654440
vt 0.998343 0.654440
vt 0.927488 0.750547
vt 0.905724 0.668780
vt 0.876680 0.587191
vt 0.975076 0.588182
vt 0.803267 0.691307
vt 0.773385 0.623645
vt 0.876680 0.587191
vt 0.803267 0.691307
vt 0.773385 0.623645
vt 0.905724 0.668780
vt 0.927488 0.750547
vt 0.975076 0.588182
vt 0.998343 0.654440
vt 0.998343 0.654440
vt 0.927488 0.750547
vt 0.905724 0.668780
vt 0.876680 0.587191
vt 0.975076 0.588182
vt 0.803267 0.691307
vt 0.773385 0.623645
vt 0.876680 0.587191
vt 0.803267 0.691307
vt 0.773385 0.623645
vt 0.905724 0.668780
vt 0.927488 0.750547
vt 0.998343 0.654440
vt 0.975076 0.588182
vt 0.998343 0.654440
vt 0.927488 0.750547
vt 0.905724 0.668780
vt 0.876680 0.587191
vt 0.975076 0.588182
vt 0.803267 0.691307
vt 0.773385 0.623645
vt 0.998343 0.654440
vt 0.927488 0.750547
vt 0.905724 0.668780
vt 0.975076 0.588182
vt 0.876680 0.587191
vt 0.803267 0.691307
vt 0.773385 0.623645
vt 0.905724 0.668780
vt 0.773385 0.623645
vt 0.876680 0.587191
vt 0.927488 0.750547
vt 0.803267 0.691307
vt 0.975076 0.588182
vt 0.998343 0.654440
vt 0.998343 0.654440
vt 0.927488 0.750547
vt 0.905724 0.668780
vt 0.975076 0.588182
vt 0.876680 0.587191
vt 0.803267 0.691307
vt 0.773385 0.623645
vt 0.905724 0.668780
vt 0.773385 0.623645
vt 0.876680 0.587191
vt 0.927488 0.750547
vt 0.803267 0.691307
vt 0.975076 0.588182
vt 0.998343 0.654440
vt 0.905724 0.668780
vt 0.773385 0.623645
vt 0.876680 0.587191
vt 0.927488 0.750547
vt 0.803267 0.691307
vt 0.975076 0.588182
vt 0.998343 0.654440
vt 0.998343 0.654440
vt 0.927488 0.750547
vt 0.905724 0.668780
vt 0.975076 0.588182
vt 0.876680 0.587191
vt 0.803267 0.691307
vt 0.773385 0.623645
vt 0.905724 0.668780
vt 0.773385 0.623645
vt 0.876680 0.587191
vt 0.927488 0.750547
vt 0.803267 0.691307
vt 0.975076 0.588182
vt 0.998343 0.654440
vt 0.998343 0.654440
vt 0.927488 0.750547
vt 0.905724 0.668780
vt 0.975076 0.588182
vt 0.876680 0.587191
vt 0.803267 0.691307
vt 0.773385 0.623645
vt 0.905724 0.668780
vt 0.773385 0.623645
vt 0.876680 0.587191
vt 0.927488 0.750547
vt 0.803267 0.691307
vt 0.975076 0.588182
vt 0.998343 0.654440
vt 0.831681 0.853420
vt 0.831897 0.961212
vt 0.960133 0.784948
vt 0.634822 0.073713
vt 0.563387 0.357480
vn -0.1009 0.9947 -0.0184
vn -0.3729 0.5404 0.7542
vn 0.1294 0.5732 0.8091
vn 0.5704 0.6034 0.5571
vn 0.7798 0.6194 0.0906
vn 0.6732 0.6143 -0.4115
vn 0.2910 0.5899 -0.7532
vn -0.2170 0.5559 -0.8024
vn -0.6544 0.5259 -0.5433
vn -0.8559 0.5113 -0.0779
vn -0.7480 0.5169 0.4162
vn -0.4045 0.2921 0.8666
vn -0.8325 0.2896 0.4722
vn -0.4196 -0.0115 0.9076
vn -0.9500 0.2980 -0.0932
vn -0.8707 -0.0047 0.4917
vn -0.7187 0.3139 -0.6204
vn -0.7520 0.0200 -0.6589
vn -0.2224 0.3319 -0.9167
vn -0.2285 0.0287 -0.9731
vn 0.3591 0.3454 -0.8670
vn 0.3873 0.0302 -0.9214
vn 0.8047 0.3491 -0.4802
vn 0.8585 0.0236 -0.5121
vn 0.9348 0.3408 0.0995
vn 0.9949 0.0113 0.0999
vn 0.6939 0.3237 0.6432
vn 0.1789 0.3050 0.9354
vn 0.7399 -0.0018 0.6727
vn 0.1962 -0.0105 0.9805
vn -0.8933 0.1247 0.4318
vn -0.7231 0.2130 -0.6571
vn -0.8650 0.2031 0.4588
vn 0.1718 0.1397 0.9752
vn -0.8686 0.0156 0.4953
vn -0.7353 0.1188 -0.6672
vn 0.2454 0.0208 0.9692
vn 0.4064 0.2096 -0.8893
vn 0.9771 0.1930 0.0890
vn 0.9893 0.1117 0.0932
vn -0.7392 0.0137 -0.6733
vn 0.4213 0.1159 -0.8995
vn 0.7371 0.0170 0.6755
vn 0.8698 0.0094 -0.4933
vn 0.4861 0.7351 -0.4726
vn 0.5619 0.8267 -0.0293
vn 0.5748 0.8171 -0.0441
vn 0.5256 0.7165 -0.4586
vn 0.6232 0.7792 -0.0663
vn 0.4920 0.7566 0.4306
vn 0.5397 0.7555 0.3714
vn 0.3140 0.9363 0.1572
vn 0.0170 0.8914 0.4530
vn 0.3698 0.9114 0.1805
vn 0.2932 0.9429 0.1577
vn -0.0576 0.8832 0.4655
vn 0.5753 0.8029 -0.1561
vn 0.5535 0.8094 -0.1959
vn -0.1781 0.7602 -0.6248
vn 0.2390 0.8557 -0.4588
vn 0.2331 0.8469 -0.4779
vn -0.1454 0.7438 -0.6523
vn 0.2399 0.8117 -0.5325
vn 0.6005 0.7820 -0.1668
vn 0.5739 0.7835 -0.2381
vn -0.3060 0.8469 0.4348
vn -0.6044 0.7835 0.1440
vn -0.3214 0.8117 0.4877
vn -0.3088 0.8557 0.4151
vn -0.6193 0.7820 0.0694
vn 0.0399 0.7438 0.6672
vn 0.0766 0.7602 0.6452
vn -0.5828 0.7602 0.2871
vn -0.4942 0.8557 -0.1530
vn -0.5119 0.8469 -0.1438
vn -0.6158 0.7438 0.2598
vn -0.5669 0.8117 -0.1406
vn -0.2716 0.7820 -0.5609
vn -0.3370 0.7835 -0.5220
vn -0.2803 0.8469 -0.4519
vn 0.1042 0.7835 -0.6126
vn -0.3229 0.8117 -0.4867
vn -0.2610 0.8557 -0.4467
vn 0.1787 0.7820 -0.5970
vn -0.6295 0.7438 -0.2245
vn -0.6236 0.7602 -0.1821
vn -0.2482 0.7602 0.6004
vn -0.4722 0.8557 0.2113
vn -0.4794 0.8469 0.2299
vn -0.2910 0.7438 0.6017
vn -0.5187 0.8117 0.2686
vn -0.5743 0.7820 -0.2420
vn -0.5978 0.7835 -0.1696
vn 0.3555 0.8469 -0.3954
vn 0.6173 0.7835 -0.0712
vn 0.3770 0.8117 -0.4461
vn 0.3559 0.8557 -0.3755
vn 0.6232 0.7820 0.0046
vn 0.0395 0.7438 -0.6672
vn 0.0005 0.7602 -0.6497
vn 0.4284 0.7998 0.4205
vn -0.0070 0.8262 0.5633
vn 0.0108 0.8190 0.5737
vn 0.4233 0.7797 0.4613
vn 0.0453 0.7851 0.6177
vn -0.4570 0.6892 0.5622
vn -0.3917 0.6971 0.6005
vn 0.5231 0.8171 0.2423
vn 0.2895 0.7555 0.5877
vn 0.5762 0.7792 0.2466
vn 0.5046 0.8267 0.2489
vn 0.2189 0.7566 0.6161
vn 0.6826 0.7165 -0.1434
vn 0.6550 0.7351 -0.1749
vn -0.3759 0.5287 -0.7610
vn 0.1566 0.6540 -0.7400
vn 0.1692 0.6274 -0.7601
vn 0.1428 0.6322 -0.7615
vn -0.3384 0.5470 -0.7656
vn 0.6566 0.5434 -0.5230
vn 0.5527 0.6376 -0.5366
vn 0.7614 0.6218 -0.1834
vn 0.8222 0.4816 0.3034
vn 0.7807 0.5761 0.2420
vn 0.7421 0.6369 -0.2088
vn 0.7166 0.6629 -0.2171
vn 0.4581 0.5885 -0.6661
vn 0.4076 0.6159 -0.6742
vn -0.8134 0.5592 0.1598
vn -0.6253 0.6974 -0.3501
vn -0.6438 0.6706 -0.3684
vn -0.6532 0.6746 -0.3436
vn -0.8061 0.5786 0.1236
vn -0.2656 0.5785 -0.7712
vn -0.3038 0.6748 -0.6725
vn 0.4728 0.6746 0.5669
vn -0.0486 0.5785 0.8142
vn 0.0243 0.6748 0.7376
vn 0.4547 0.6706 0.5861
vn 0.4445 0.6974 0.5621
vn 0.8129 0.5592 0.1625
vn 0.7923 0.5786 0.1932
vn -0.0740 0.5592 0.8257
vn -0.5109 0.6974 0.5025
vn -0.5337 0.6706 0.5152
vn -0.5126 0.6746 0.5311
vn -0.1067 0.5786 0.8086
vn -0.8147 0.5785 0.0394
vn -0.7306 0.6748 0.1037
vn 0.3423 0.8975 0.2781
vn -0.1125 0.9396 0.3231
vn -0.0971 0.9360 0.3382
vn 0.3291 0.8881 0.3209
vn -0.0722 0.9158 0.3951
vn -0.5544 0.7871 0.2703
vn -0.4979 0.8072 0.3171
vn -0.1867 0.8867 -0.4228
vn 0.2181 0.8244 -0.5223
vn -0.2235 0.8556 -0.4669
vn -0.1685 0.8946 -0.4138
vn 0.2889 0.8196 -0.4948
vn -0.5708 0.7771 -0.2652
vn -0.5718 0.7900 -0.2213
vn -0.4541 0.8691 -0.1957
vn -0.1101 0.9292 -0.3527
vn -0.1480 0.9241 -0.3522
vn -0.4554 0.8590 -0.2338
vn -0.1843 0.9023 -0.3896
vn 0.2228 0.8766 -0.4265
vn 0.1728 0.8799 -0.4426
vn -0.0788 0.9570 0.2792
vn -0.3933 0.8779 0.2732
vn -0.0514 0.9438 0.3265
vn -0.0993 0.9585 0.2672
vn -0.4400 0.8654 0.2397
vn 0.2496 0.9305 0.2680
vn 0.2581 0.9374 0.2337
vn -0.3986 0.9094 -0.1184
vn -0.2630 0.8508 -0.4549
vn -0.4505 0.8860 -0.1094
vn -0.3781 0.9144 -0.1443
vn -0.2159 0.8448 -0.4895
vn -0.4989 0.8346 0.2335
vn -0.4668 0.8463 0.2564
vn 0.0605 0.8258 0.5607
vn -0.2224 0.9053 0.3619
vn -0.2397 0.8977 0.3695
vn 0.0334 0.8118 0.5830
vn -0.2685 0.8739 0.4051
vn -0.4951 0.8666 0.0616
vn -0.4823 0.8669 0.1262
vn 0.1822 0.8951 -0.4068
vn 0.4570 0.8649 -0.2076
vn 0.2036 0.8708 -0.4475
vn 0.1708 0.9031 -0.3940
vn 0.4790 0.8653 -0.1477
vn -0.1167 0.8130 -0.5703
vn -0.1400 0.8271 -0.5442
vn 0.4358 0.8835 -0.1716
vn 0.2058 0.9676 0.1461
vn 0.2394 0.9633 0.1213
vn 0.4551 0.8799 -0.1364
vn 0.2930 0.9471 0.1312
vn -0.0410 0.9191 0.3919
vn 0.0105 0.9261 0.3772
vn 0.4533 0.8905 -0.0389
vn 0.4328 0.8387 0.3305
vn 0.4992 0.8648 -0.0547
vn 0.4400 0.8976 -0.0271
vn 0.3960 0.8347 0.3826
vn 0.4258 0.8049 -0.4133
vn 0.3888 0.8192 -0.4216
vn -0.9946 0.0073 -0.1032
vn 0.1911 0.2056 0.9598
vn 0.4113 0.0123 -0.9114
s 1
f 1/1/1 2/2/2 3/3/3
f 4/4/4 1/5/1 3/6/3
f 5/7/5 1/5/1 4/4/4
f 6/8/6 1/5/1 5/7/5
f 7/9/7 1/5/1 6/8/6
f 8/10/8 1/5/1 7/9/7
f 9/11/9 1/1/1 8/12/8
f 10/13/10 1/1/1 9/11/9
f 11/14/11 1/1/1 10/13/10
f 2/2/2 1/1/1 11/14/11
f 11/14/11 13/15/12 2/2/2
f 12/16/13 15/17/14 13/15/12
f 10/13/10 12/16/13 11/14/11
f 16/18/15 14/19/16 12/16/13
f 18/20/17 10/13/10 9/11/9
f 19/21/18 16/18/15 18/20/17
f 20/22/19 9/11/9 8/12/8
f 21/23/20 18/20/17 20/22/19
f 22/24/21 8/10/8 7/9/7
f 23/25/22 20/26/19 22/24/21
f 24/27/23 7/9/7 6/8/6
f 25/28/24 22/24/21 24/27/23
f 26/29/25 6/8/6 5/7/5
f 27/30/26 24/27/23 26/29/25
f 4/4/4 26/29/25 5/7/5
f 28/31/27 27/30/26 26/29/25
f 3/6/3 28/31/27 4/4/4
f 30/32/28 29/33/29 28/31/27
f 2/2/2 30/34/28 3/3/3
f 13/15/12 31/35/30 30/34/28
f 33/36/31 35/37/32 32/38/33
f 32/38/33 37/39/34 33/36/31
f 38/40/35 34/41/36 33/36/31
f 40/42/37 33/36/31 37/39/34
f 34/41/36 42/43/38 35/37/32
f 37/39/34 44/44/39 43/45/40
f 39/46/41 41/47/42 34/41/36
f 40/42/37 43/45/40 46/48/43
f 41/47/42 44/49/39 42/43/38
f 41/47/42 47/50/44 43/51/40
f 48/52/45 49/53/46 50/54/47
f 51/55/48 50/54/47 52/56/49
f 50/54/47 49/53/46 53/57/50
f 50/54/47 54/58/51 52/56/49
f 56/59/52 58/60/53 55/61/54
f 56/59/52 59/62/55 57/63/56
f 60/64/57 56/59/52 55/61/54
f 61/65/58 59/62/55 56/59/52
f 62/66/59 63/67/60 64/68/61
f 65/69/62 64/68/61 66/70/63
f 64/68/61 63/67/60 67/71/64
f 64/68/61 68/72/65 66/70/63
f 70/73/66 72/74/67 69/75/68
f 70/73/66 73/76/69 71/77/70
f 74/78/71 70/73/66 69/75/68
f 75/79/72 73/76/69 70/73/66
f 76/80/73 77/81/74 78/82/75
f 79/83/76 78/82/75 80/84/77
f 78/82/75 77/81/74 81/85/78
f 78/82/75 82/86/79 80/84/77
f 84/87/80 86/88/81 83/89/82
f 84/87/80 87/90/83 85/91/84
f 88/92/85 84/87/80 83/89/82
f 89/93/86 87/90/83 84/87/80
f 90/94/87 91/95/88 92/96/89
f 93/97/90 92/96/89 94/98/91
f 92/96/89 91/95/88 95/99/92
f 92/96/89 96/100/93 94/98/91
f 98/101/94 100/102/95 97/103/96
f 98/101/94 101/104/97 99/105/98
f 102/106/99 98/101/94 97/103/96
f 103/107/100 101/104/97 98/101/94
f 104/108/101 105/109/102 106/110/103
f 107/111/104 106/110/103 108/112/105
f 106/110/103 105/109/102 109/113/106
f 106/110/103 110/114/107 108/112/105
f 112/115/108 114/116/109 111/117/110
f 112/115/108 115/118/111 113/119/112
f 116/120/113 112/115/108 111/117/110
f 117/121/114 115/118/111 112/115/108
f 118/122/115 119/123/116 120/124/117
f 118/122/115 122/125/118 121/126/119
f 120/124/117 119/123/116 123/127/120
f 122/125/118 123/127/120 124/128/121
f 125/129/122 127/130/123 128/131/124
f 126/132/125 129/133/126 127/130/123
f 130/134/127 126/132/125 125/129/122
f 131/135/128 129/133/126 126/132/125
f 132/136/129 133/137/130 134/138/131
f 132/136/129 136/139/132 135/140/133
f 134/138/131 133/137/130 137/141/134
f 136/139/132 137/141/134 138/142/135
f 139/143/136 141/144/137 142/145/138
f 140/146/139 143/147/140 141/144/137
f 145/148/141 139/143/136 144/149/142
f 145/148/141 143/147/140 140/146/139
f 146/150/143 147/151/144 148/152/145
f 146/150/143 150/153/146 149/154/147
f 148/152/145 147/151/144 151/155/148
f 150/153/146 151/155/148 152/156/149
f 153/157/150 154/158/151 155/159/152
f 156/160/153 155/159/152 157/161/154
f 155/159/152 154/158/151 158/162/155
f 155/159/152 159/163/156 157/161/154
f 161/164/157 163/165/158 160/166/159
f 161/164/157 164/167/160 162/168/161
f 165/169/162 161/164/157 160/166/159
f 166/170/163 164/167/160 161/164/157
f 167/171/164 168/172/165 169/173/166
f 170/174/167 169/173/166 171/175/168
f 169/173/166 168/172/165 172/176/169
f 169/173/166 173/177/170 171/175/168
f 175/178/171 177/179/172 174/180/173
f 175/178/171 178/181/174 176/182/175
f 179/183/176 175/178/171 174/180/173
f 180/184/177 178/181/174 175/178/171
f 182/185/178 184/186/179 181/187/180
f 182/185/178 185/188/181 183/189/182
f 186/190/183 182/185/178 181/187/180
f 187/191/184 185/188/181 182/185/178
f 188/192/185 189/193/186 190/194/187
f 191/195/188 190/194/187 192/196/189
f 190/194/187 189/193/186 193/197/190
f 190/194/187 194/198/191 192/196/189
f 196/199/192 198/200/193 195/201/194
f 196/199/192 199/202/195 197/203/196
f 200/204/197 196/199/192 195/201/194
f 201/205/198 199/202/195 196/199/192
f 202/206/199 203/207/200 204/208/201
f 205/209/202 204/208/201 206/210/203
f 204/208/201 203/207/200 207/211/204
f 204/208/201 208/212/205 206/210/203
f 210/213/206 212/214/207 209/215/208
f 210/213/206 213/216/209 211/217/210
f 214/218/211 210/213/206 209/215/208
f 215/219/212 213/216/209 210/213/206
f 11/14/11 12/16/13 13/15/12
f 12/16/13 14/19/16 15/17/14
f 10/13/10 16/18/15 12/16/13
f 16/18/15 17/220/213 14/19/16
f 18/20/17 16/18/15 10/13/10
f 19/21/18 17/220/213 16/18/15
f 20/22/19 18/20/17 9/11/9
f 21/23/20 19/21/18 18/20/17
f 22/24/21 20/26/19 8/10/8
f 23/25/22 21/221/20 20/26/19
f 24/27/23 22/24/21 7/9/7
f 25/28/24 23/25/22 22/24/21
f 26/29/25 24/27/23 6/8/6
f 27/30/26 25/28/24 24/27/23
f 4/4/4 28/31/27 26/29/25
f 28/31/27 29/33/29 27/30/26
f 3/6/3 30/32/28 28/31/27
f 30/32/28 31/222/30 29/33/29
f 2/2/2 13/15/12 30/34/28
f 13/15/12 15/17/14 31/35/30
f 33/36/31 34/41/36 35/37/32
f 32/38/33 36/223/214 37/39/34
f 38/40/35 39/46/41 34/41/36
f 40/42/37 38/40/35 33/36/31
f 34/41/36 41/47/42 42/43/38
f 37/39/34 36/223/214 44/44/39
f 39/46/41 45/224/215 41/47/42
f 40/42/37 37/39/34 43/45/40
f 41/47/42 43/51/40 44/49/39
f 41/47/42 45/224/215 47/50/44
f 51/55/48 48/52/45 50/54/47
f 50/54/47 53/57/50 54/58/51
f 56/59/52 57/63/56 58/60/53
f 60/64/57 61/65/58 56/59/52
f 65/69/62 62/66/59 64/68/61
f 64/68/61 67/71/64 68/72/65
f 70/73/66 71/77/70 72/74/67
f 74/78/71 75/79/72 70/73/66
f 79/83/76 76/80/73 78/82/75
f 78/82/75 81/85/78 82/86/79
f 84/87/80 85/91/84 86/88/81
f 88/92/85 89/93/86 84/87/80
f 93/97/90 90/94/87 92/96/89
f 92/96/89 95/99/92 96/100/93
f 98/101/94 99/105/98 100/102/95
f 102/106/99 103/107/100 98/101/94
f 107/111/104 104/108/101 106/110/103
f 106/110/103 109/113/106 110/114/107
f 112/115/108 113/119/112 114/116/109
f 116/120/113 117/121/114 112/115/108
f 118/122/115 120/124/117 122/125/118
f 122/125/118 120/124/117 123/127/120
f 125/129/122 126/132/125 127/130/123
f 130/134/127 131/135/128 126/132/125
f 132/136/129 134/138/131 136/139/132
f 136/139/132 134/138/131 137/141/134
f 139/143/136 140/146/139 141/144/137
f 145/148/141 140/146/139 139/143/136
f 146/150/143 148/152/145 150/153/146
f 150/153/146 148/152/145 151/155/148
f 156/160/153 153/157/150 155/159/152
f 155/159/152 158/162/155 159/163/156
f 161/164/157 162/168/161 163/165/158
f 165/169/162 166/170/163 161/164/157
f 170/174/167 167/171/164 169/173/166
f 169/173/166 172/176/169 173/177/170
f 175/178/171 176/182/175 177/179/172
f 179/183/176 180/184/177 175/178/171
f 182/185/178 183/189/182 184/186/179
f 186/190/183 187/191/184 182/185/178
f 191/195/188 188/192/185 190/194/187
f 190/194/187 193/197/190 194/198/191
f 196/199/192 197/203/196 198/200/193
f 200/204/197 201/205/198 196/199/192
f 205/209/202 202/206/199 204/208/201
f 204/208/201 207/211/204 208/212/205
f 210/213/206 211/217/210 212/214/207
f 214/218/211 215/219/212 210/213/206
