# Blender v2.79 (sub 0) OBJ File: ''
# www.blender.org
o Cube.001
v 0.375685 0.520000 -0.200000
v 0.375685 0.520000 0.200000
v -0.375685 0.520000 0.200000
v -0.375685 0.520000 -0.200000
v 0.375685 2.520000 -0.200000
v 0.375685 2.520000 0.200000
v -0.375685 2.520000 0.200000
v -0.375685 2.520000 -0.200000
v 0.375685 0.520000 -1.700000
v 0.375685 0.520000 -1.300000
v -0.375685 0.520000 -1.300000
v -0.375685 0.520000 -1.700000
v 0.375685 2.520000 -1.700000
v 0.375685 2.520000 -1.300000
v -0.375685 2.520000 -1.300000
v -0.375685 2.520000 -1.700000
v 0.375685 2.815292 -1.700000
v 0.375685 2.515292 -1.700000
v -0.375685 2.515292 -1.700000
v -0.375685 2.815292 -1.700000
v 0.375685 2.815291 0.200000
v 0.375685 2.515291 0.200000
v -0.375685 2.515292 0.200000
v -0.375685 2.815291 0.200000
vt 0.248072 0.839582
vt 0.100820 0.006829
vt 0.266399 0.011522
vt 0.629839 0.868059
vt 0.334552 0.003386
vt 0.662011 0.001172
vt 0.874026 0.084684
vt 0.704036 0.876925
vt 0.716636 0.077407
vt 0.499900 0.499900
vt 0.000100 0.000100
vt 0.499900 0.000100
vt 0.074883 0.837861
vt 0.329503 0.863118
vt 0.859043 0.878542
vt 0.000100 0.499900
vt 0.190432 0.063231
vt 0.394486 0.247517
vt 0.194534 0.251865
vt 0.798494 0.427456
vt 0.602643 0.620439
vt 0.598541 0.431804
vt 0.390384 0.058883
vt 0.802595 0.616091
vt 0.885876 0.845920
vt 0.715542 0.024253
vt 0.876652 0.028820
vt 0.499900 0.999900
vt 0.000100 0.500100
vt 0.499900 0.500100
vt 0.266382 0.872360
vt 0.105980 0.049171
vt 0.272063 0.056850
vt 0.347867 0.066531
vt 0.630294 0.858736
vt 0.343579 0.855077
vt 0.717569 0.844247
vt 0.000100 0.999900
vt 0.102954 0.870655
vt 0.642802 0.074863
vt 0.590337 0.054535
vt 0.394486 0.247517
vt 0.390384 0.058883
vt 0.394486 0.247517
vt 0.198635 0.440500
vt 0.194534 0.251865
vt 0.594439 0.243169
vt 0.398588 0.436152
vt 0.343589 0.853273
vt 0.628506 0.970774
vt 0.342967 0.967762
vt 0.328827 0.978245
vt 0.629909 0.866186
vt 0.625535 0.984049
vt 0.070852 0.967015
vt 0.885853 0.843911
vt 0.887308 0.972794
vt 0.859078 0.876703
vt 0.102515 0.989689
vt 0.102961 0.868752
vt 0.630323 0.856942
vt 0.329514 0.861259
vt 0.074947 0.835815
vt 0.856871 0.993645
vt 0.006886 0.822117
vt 0.952560 0.612830
vt 0.956661 0.801464
vt 0.956661 0.801464
vt 0.010988 1.010751
vt 0.006886 0.822117
vt 0.002784 0.633482
vt 0.960763 0.990099
vn 1.0000 -0.0000 0.0000
vn -0.0000 -0.0000 1.0000
vn -1.0000 -0.0000 -0.0000
vn 0.0000 0.0000 -1.0000
vn 0.0000 -1.0000 0.0000
vn 0.0000 1.0000 -0.0000
s off
f 5/1/1 2/2/1 1/3/1
f 6/4/2 3/5/2 2/6/2
f 3/7/3 8/8/3 4/9/3
f 1/10/4 8/11/4 5/12/4
f 5/1/1 6/13/1 2/2/1
f 6/4/2 7/14/2 3/5/2
f 3/7/3 7/15/3 8/8/3
f 1/10/4 4/16/4 8/11/4
f 2/17/5 4/18/5 1/19/5
f 8/20/6 6/21/6 5/22/6
f 2/17/5 3/23/5 4/18/5
f 8/20/6 7/24/6 6/21/6
f 13/25/1 10/26/1 9/27/1
f 14/28/2 11/29/2 10/30/2
f 15/31/3 12/32/3 11/33/3
f 9/34/4 16/35/4 13/36/4
f 13/25/1 14/37/1 10/26/1
f 14/28/2 15/38/2 11/29/2
f 15/31/3 16/39/3 12/32/3
f 9/34/4 12/40/4 16/35/4
f 10/41/5 12/42/5 9/43/5
f 16/44/6 14/45/6 13/46/6
f 10/41/5 11/47/5 12/42/5
f 16/44/6 15/48/6 14/45/6
f 18/49/4 20/50/4 17/51/4
f 24/52/2 22/53/2 21/54/2
f 21/55/1 18/56/1 17/57/1
f 23/58/3 20/59/3 19/60/3
f 18/49/4 19/61/4 20/50/4
f 24/52/2 23/62/2 22/53/2
f 21/55/1 22/63/1 18/56/1
f 23/58/3 24/64/3 20/59/3
f 22/65/5 19/66/5 18/67/5
f 17/68/6 24/69/6 21/70/6
f 22/65/5 23/71/5 19/66/5
f 17/68/6 20/72/6 24/69/6
