# Blender v2.79 (sub 0) OBJ File: 'taza 1.blend@'
# www.blender.org
o Circle
v -0.242275 0.000000 -0.152717
v -0.267413 0.000000 -0.102517
v -0.282275 -0.000000 -0.048377
v -0.286289 0.000000 0.007622
v -0.279301 0.000000 0.063328
v -0.261580 0.000000 0.116600
v -0.233806 0.000000 0.165391
v -0.197048 0.000000 0.207826
v -0.152716 0.000000 0.242275
v -0.102517 0.000000 0.267413
v -0.048377 0.000000 0.282275
v 0.007622 0.000000 0.286289
v 0.063328 0.000000 0.279301
v 0.116600 0.000000 0.261580
v 0.165391 0.000000 0.233806
v 0.207827 0.000000 0.197048
v 0.242275 0.000000 0.152716
v 0.267414 0.000000 0.102516
v 0.282275 0.000000 0.048377
v 0.286289 0.000000 -0.007622
v 0.279301 0.000000 -0.063328
v 0.261580 0.000000 -0.116600
v 0.233806 0.000000 -0.165391
v 0.197048 -0.000000 -0.207827
v 0.152716 0.000000 -0.242275
v 0.102516 0.000000 -0.267414
v 0.048377 0.000000 -0.282275
v -0.007622 0.000000 -0.286289
v -0.063328 0.000000 -0.279301
v -0.116600 0.000000 -0.261580
v -0.165391 0.000000 -0.233806
v -0.207827 0.000000 -0.197047
v -0.298493 0.714355 -0.188153
v -0.329465 0.714355 -0.126305
v -0.347775 0.714355 -0.059602
v -0.352721 0.714355 0.009390
v -0.344111 0.714355 0.078022
v -0.322278 0.714355 0.143656
v -0.288059 0.714355 0.203769
v -0.242771 0.714355 0.256051
v -0.188153 0.714355 0.298493
v -0.126305 0.714355 0.329465
v -0.059603 0.714355 0.347775
v 0.009390 0.714355 0.352721
v 0.078022 0.714355 0.344111
v 0.143656 0.714355 0.322278
v 0.203769 0.714355 0.288059
v 0.256051 0.714355 0.242771
v 0.298494 0.714355 0.188153
v 0.329465 0.714355 0.126305
v 0.347775 0.714355 0.059602
v 0.352721 0.714355 -0.009391
v 0.344111 0.714355 -0.078022
v 0.322278 0.714355 -0.143656
v 0.288059 0.714355 -0.203769
v 0.242771 0.714355 -0.256051
v 0.188153 0.714355 -0.298494
v 0.126304 0.714355 -0.329465
v 0.059602 0.714355 -0.347775
v -0.009391 0.714355 -0.352721
v -0.078023 0.714355 -0.344111
v -0.143656 0.714355 -0.322278
v -0.203769 0.714355 -0.288059
v -0.256051 0.714355 -0.242771
v 0.288059 0.050371 -0.203769
v 0.242771 0.050371 -0.256051
v -0.126305 0.050371 0.329465
v -0.059603 0.050371 0.347775
v 0.188153 0.050371 -0.298494
v 0.009390 0.050371 0.352721
v 0.126304 0.050371 -0.329465
v 0.078022 0.050371 0.344111
v 0.059602 0.050371 -0.347775
v 0.143656 0.050371 0.322278
v -0.009391 0.050371 -0.352721
v 0.203769 0.050371 0.288059
v -0.298493 0.050371 -0.188153
v -0.329465 0.050371 -0.126305
v -0.078023 0.050371 -0.344111
v 0.256051 0.050371 0.242771
v -0.347775 0.050371 -0.059602
v -0.143656 0.050371 -0.322278
v 0.298494 0.050371 0.188153
v -0.352721 0.050371 0.009390
v -0.203769 0.050371 -0.288059
v 0.329465 0.050371 0.126305
v -0.344111 0.050371 0.078022
v -0.256051 0.050371 -0.242771
v 0.347775 0.050371 0.059602
v -0.322278 0.050371 0.143656
v 0.352721 0.050371 -0.009391
v -0.288059 0.050371 0.203769
v 0.344111 0.050371 -0.078022
v -0.242771 0.050371 0.256051
v 0.322278 0.050371 -0.143656
v -0.188153 0.050371 0.298493
v -0.329465 0.000000 -0.126305
v -0.298493 0.000000 -0.188153
v -0.347775 0.000000 -0.059602
v -0.352721 0.000000 0.009390
v -0.344111 0.000000 0.078022
v -0.322278 0.000000 0.143656
v -0.288059 0.000000 0.203769
v -0.242771 0.000000 0.256051
v -0.188153 0.000000 0.298493
v -0.126305 0.000000 0.329465
v -0.059603 0.000000 0.347775
v 0.009390 0.000000 0.352721
v 0.078022 0.000000 0.344111
v 0.143656 0.000000 0.322278
v 0.203769 0.000000 0.288059
v 0.256051 0.000000 0.242771
v 0.298494 0.000000 0.188153
v 0.329465 0.000000 0.126305
v 0.347775 0.000000 0.059602
v 0.352721 0.000000 -0.009391
v 0.344111 0.000000 -0.078022
v 0.322278 0.000000 -0.143656
v 0.288059 0.000000 -0.203769
v 0.242771 0.000000 -0.256051
v 0.188153 0.000000 -0.298494
v 0.126304 0.000000 -0.329465
v 0.059602 0.000000 -0.347775
v -0.009391 0.000000 -0.352721
v -0.078023 0.000000 -0.344111
v -0.143656 0.000000 -0.322278
v -0.203769 0.000000 -0.288059
v -0.256051 0.000000 -0.242771
v 0.288059 0.620487 -0.203769
v -0.126305 0.620487 0.329465
v -0.298493 0.620487 -0.188153
v 0.242771 0.620487 -0.256051
v -0.059603 0.620487 0.347775
v 0.188153 0.620487 -0.298494
v 0.009390 0.620487 0.352721
v 0.126304 0.620487 -0.329465
v 0.078022 0.620487 0.344111
v 0.045483 0.682525 -0.337321
v 0.143656 0.620487 0.322278
v -0.009391 0.620487 -0.352721
v 0.203769 0.620487 0.288059
v -0.329465 0.620487 -0.126305
v -0.056942 0.578699 -0.380658
v 0.256051 0.620487 0.242771
v -0.347775 0.620487 -0.059602
v -0.143656 0.620487 -0.322278
v 0.298494 0.620487 0.188153
v -0.352721 0.620487 0.009390
v -0.203769 0.620487 -0.288059
v 0.329465 0.620487 0.126305
v -0.344111 0.620487 0.078022
v -0.256051 0.620487 -0.242771
v 0.347775 0.620487 0.059602
v -0.322278 0.620487 0.143656
v 0.352721 0.620487 -0.009391
v -0.288059 0.620487 0.203769
v 0.344111 0.620487 -0.078022
v -0.242771 0.620487 0.256051
v 0.322278 0.620487 -0.143656
v -0.188153 0.620487 0.298493
v 0.242771 0.119752 -0.256051
v -0.059603 0.119752 0.347775
v 0.188153 0.119752 -0.298494
v 0.009390 0.119752 0.352721
v 0.126304 0.119752 -0.329465
v 0.078022 0.119752 0.344111
v 0.012301 0.162822 -0.419080
v 0.143656 0.119752 0.322278
v -0.009391 0.119752 -0.352721
v 0.203769 0.119752 0.288059
v -0.329465 0.119752 -0.126305
v -0.125324 0.162822 -0.415416
v 0.256051 0.119752 0.242771
v -0.347775 0.119752 -0.059602
v -0.143656 0.119752 -0.322278
v 0.298494 0.119752 0.188153
v -0.352721 0.119752 0.009390
v -0.203769 0.119752 -0.288059
v 0.329465 0.119752 0.126305
v -0.344111 0.119752 0.078022
v -0.256051 0.119752 -0.242771
v 0.347775 0.119752 0.059602
v -0.322278 0.119752 0.143656
v 0.352721 0.119752 -0.009391
v -0.288059 0.119752 0.203769
v 0.344111 0.119752 -0.078022
v -0.242771 0.119752 0.256051
v 0.322278 0.119752 -0.143656
v -0.188153 0.119752 0.298493
v 0.288059 0.119752 -0.203769
v -0.126305 0.119752 0.329465
v -0.298493 0.119752 -0.188153
v -0.019396 0.620487 -0.728538
v -0.045655 0.547101 -0.646977
v 0.091970 0.547101 -0.650641
v 0.039044 0.153203 -0.649945
v -0.019396 0.119752 -0.728538
v -0.098581 0.153203 -0.646281
v 0.059602 0.620487 -0.347775
v 0.059602 0.119752 -0.347775
v -0.078023 0.620487 -0.344111
v -0.078023 0.119752 -0.344111
v 0.049596 0.620487 -0.723593
v 0.049596 0.119752 -0.723593
v -0.088028 0.620487 -0.719928
v -0.088028 0.119752 -0.719928
vn -0.7559 0.0000 0.6547
vn 0.2647 0.0000 -0.9643
vn -0.6136 0.0000 0.7896
vn 0.0715 0.0000 -0.9974
vn -0.4478 0.0000 0.8942
vn -0.1245 0.0000 -0.9922
vn -0.2647 0.0000 0.9643
vn -0.3156 0.0000 -0.9489
vn -0.0715 0.0000 0.9974
vn -0.4947 0.0000 -0.8691
vn 0.8942 0.0000 0.4478
vn 0.1245 0.0000 0.9922
vn -0.6547 0.0000 -0.7559
vn 0.9643 0.0000 0.2647
vn 0.3157 0.0000 0.9489
vn -0.7896 0.0000 -0.6136
vn 0.9974 0.0000 0.0715
vn 0.4947 0.0000 0.8691
vn -0.8942 0.0000 -0.4478
vn 0.9922 0.0000 -0.1245
vn 0.6547 0.0000 0.7559
vn -0.9643 0.0000 -0.2647
vn 0.9489 0.0000 -0.3156
vn 0.7896 0.0000 0.6136
vn -0.9974 0.0000 -0.0715
vn 0.8691 0.0000 -0.4947
vn -0.9922 0.0000 0.1245
vn 0.7559 0.0000 -0.6547
vn -0.9489 0.0000 0.3156
vn 0.6136 0.0000 -0.7896
vn -0.8691 0.0000 0.4947
vn 0.4478 0.0000 -0.8942
vn 0.3156 0.0000 0.9489
vn 0.0000 1.0000 0.0000
vn 0.0000 -1.0000 0.0000
vn -0.0266 0.0018 -0.9996
vn 0.0011 -0.9991 0.0418
vn 0.0379 -0.1577 0.9868
vn 0.8064 -0.0837 -0.5855
vn -0.9715 0.1302 -0.1983
vn 0.8647 0.0000 -0.5023
vn 0.9363 0.3503 -0.0249
vn 0.8842 0.4666 -0.0235
vn -0.8756 -0.4824 0.0233
vn -0.6375 -0.7693 -0.0418
vn -0.5654 0.7233 -0.3965
vn -0.2689 -0.1329 0.9540
vn -0.8333 0.0000 0.5528
vn 0.8662 0.0000 0.4996
vn -0.8647 0.0000 0.5023
vn 0.9715 -0.1302 0.1983
vn 0.6375 0.7693 0.0418
vn 0.8745 0.4846 -0.0204
vn 0.9756 0.2132 0.0526
vn -0.9363 -0.3503 0.0249
vn -0.0031 0.9930 -0.1180
vn 0.0265 -0.0876 0.9958
s off
f 129//1 56//1 132//1
f 130//2 43//2 133//2
f 132//3 57//3 134//3
f 133//4 44//4 135//4
f 134//5 58//5 136//5
f 135//6 45//6 137//6
f 136//7 59//7 199//7
f 137//8 46//8 139//8
f 199//9 60//9 140//9
f 139//10 47//10 141//10
f 131//11 34//11 142//11
f 140//12 61//12 201//12
f 141//13 48//13 144//13
f 142//14 35//14 145//14
f 201//15 62//15 146//15
f 144//16 49//16 147//16
f 145//17 36//17 148//17
f 146//18 63//18 149//18
f 147//19 50//19 150//19
f 148//20 37//20 151//20
f 149//21 64//21 152//21
f 150//22 51//22 153//22
f 151//23 38//23 154//23
f 152//24 33//24 131//24
f 153//25 52//25 155//25
f 154//26 39//26 156//26
f 155//27 53//27 157//27
f 156//28 40//28 158//28
f 157//29 54//29 159//29
f 158//30 41//30 160//30
f 159//31 55//31 129//31
f 160//32 42//32 130//32
f 105//32 67//32 106//32
f 118//31 65//31 119//31
f 104//30 96//30 105//30
f 117//29 95//29 118//29
f 103//28 94//28 104//28
f 116//27 93//27 117//27
f 102//26 92//26 103//26
f 115//25 91//25 116//25
f 128//24 77//24 98//24
f 101//23 90//23 102//23
f 114//22 89//22 115//22
f 127//21 88//21 128//21
f 100//20 87//20 101//20
f 113//19 86//19 114//19
f 126//18 85//18 127//18
f 99//17 84//17 100//17
f 112//16 83//16 113//16
f 125//33 82//33 126//33
f 97//14 81//14 99//14
f 111//13 80//13 112//13
f 124//12 79//12 125//12
f 98//11 78//11 97//11
f 110//10 76//10 111//10
f 123//9 75//9 124//9
f 109//8 74//8 110//8
f 122//7 73//7 123//7
f 108//6 72//6 109//6
f 121//5 71//5 122//5
f 107//4 70//4 108//4
f 120//3 69//3 121//3
f 106//2 68//2 107//2
f 119//1 66//1 120//1
f 17//34 25//34 1//34
f 2//34 98//34 97//34
f 3//34 97//34 99//34
f 3//34 100//34 4//34
f 4//34 101//34 5//34
f 5//34 102//34 6//34
f 6//34 103//34 7//34
f 7//34 104//34 8//34
f 8//34 105//34 9//34
f 9//34 106//34 10//34
f 10//34 107//34 11//34
f 11//34 108//34 12//34
f 12//34 109//34 13//34
f 13//34 110//34 14//34
f 14//34 111//34 15//34
f 15//34 112//34 16//34
f 16//34 113//34 17//34
f 17//34 114//34 18//34
f 18//34 115//34 19//34
f 20//34 115//34 116//34
f 21//34 116//34 117//34
f 22//34 117//34 118//34
f 23//34 118//34 119//34
f 24//34 119//34 120//34
f 25//34 120//34 121//34
f 26//34 121//34 122//34
f 27//34 122//34 123//34
f 28//34 123//34 124//34
f 29//34 124//34 125//34
f 30//34 125//34 126//34
f 31//34 126//34 127//34
f 32//34 127//34 128//34
f 1//34 128//34 98//34
f 189//32 130//32 191//32
f 188//31 129//31 190//31
f 187//30 160//30 189//30
f 186//29 159//29 188//29
f 185//28 158//28 187//28
f 184//27 157//27 186//27
f 183//26 156//26 185//26
f 182//25 155//25 184//25
f 181//24 131//24 192//24
f 180//23 154//23 183//23
f 179//22 153//22 182//22
f 178//21 152//21 181//21
f 177//20 151//20 180//20
f 176//19 150//19 179//19
f 175//18 149//18 178//18
f 174//17 148//17 177//17
f 173//16 147//16 176//16
f 202//15 146//15 175//15
f 171//14 145//14 174//14
f 170//13 144//13 173//13
f 140//35 205//35 193//35
f 192//11 142//11 171//11
f 168//10 141//10 170//10
f 169//34 206//34 202//34
f 166//8 139//8 168//8
f 165//7 199//7 200//7
f 164//6 137//6 166//6
f 163//5 136//5 165//5
f 162//4 135//4 164//4
f 161//3 134//3 163//3
f 191//2 133//2 162//2
f 190//1 132//1 161//1
f 65//1 161//1 66//1
f 67//2 162//2 68//2
f 66//3 163//3 69//3
f 68//4 164//4 70//4
f 69//5 165//5 71//5
f 70//6 166//6 72//6
f 71//7 200//7 73//7
f 72//8 168//8 74//8
f 73//9 169//9 75//9
f 74//10 170//10 76//10
f 77//11 171//11 78//11
f 75//12 202//12 79//12
f 76//13 173//13 80//13
f 78//14 174//14 81//14
f 79//33 175//33 82//33
f 80//16 176//16 83//16
f 81//17 177//17 84//17
f 82//18 178//18 85//18
f 83//19 179//19 86//19
f 84//20 180//20 87//20
f 85//21 181//21 88//21
f 86//22 182//22 89//22
f 87//23 183//23 90//23
f 88//24 192//24 77//24
f 89//25 184//25 91//25
f 90//26 185//26 92//26
f 91//27 186//27 93//27
f 92//28 187//28 94//28
f 93//29 188//29 95//29
f 94//30 189//30 96//30
f 95//31 190//31 65//31
f 96//32 191//32 67//32
f 197//12 205//12 206//12
f 204//9 193//9 197//9
f 196//36 194//36 195//36
f 140//35 203//35 199//35
f 167//37 198//37 196//37
f 169//34 204//34 197//34
f 167//38 199//38 138//38
f 143//39 202//39 172//39
f 195//40 204//40 196//40
f 194//41 206//41 205//41
f 198//42 202//42 206//42
f 143//43 205//43 201//43
f 195//44 199//44 203//44
f 196//45 200//45 167//45
f 195//46 143//46 138//46
f 143//47 167//47 138//47
f 129//1 55//1 56//1
f 130//2 42//2 43//2
f 132//3 56//3 57//3
f 133//4 43//4 44//4
f 134//5 57//5 58//5
f 135//6 44//6 45//6
f 136//7 58//7 59//7
f 137//8 45//8 46//8
f 199//9 59//9 60//9
f 139//10 46//10 47//10
f 131//11 33//11 34//11
f 140//12 60//12 61//12
f 141//13 47//13 48//13
f 142//14 34//14 35//14
f 201//33 61//33 62//33
f 144//16 48//16 49//16
f 145//17 35//17 36//17
f 146//18 62//18 63//18
f 147//19 49//19 50//19
f 148//20 36//20 37//20
f 149//21 63//21 64//21
f 150//22 50//22 51//22
f 151//23 37//23 38//23
f 152//24 64//24 33//24
f 153//25 51//25 52//25
f 154//26 38//26 39//26
f 155//27 52//27 53//27
f 156//28 39//28 40//28
f 157//29 53//29 54//29
f 158//30 40//30 41//30
f 159//31 54//31 55//31
f 160//32 41//32 42//32
f 105//32 96//32 67//32
f 118//31 95//31 65//31
f 104//30 94//30 96//30
f 117//29 93//29 95//29
f 103//28 92//28 94//28
f 116//27 91//27 93//27
f 102//26 90//26 92//26
f 115//25 89//25 91//25
f 128//24 88//24 77//24
f 101//23 87//23 90//23
f 114//22 86//22 89//22
f 127//21 85//21 88//21
f 100//20 84//20 87//20
f 113//19 83//19 86//19
f 126//18 82//18 85//18
f 99//17 81//17 84//17
f 112//16 80//16 83//16
f 125//15 79//15 82//15
f 97//14 78//14 81//14
f 111//13 76//13 80//13
f 124//12 75//12 79//12
f 98//11 77//11 78//11
f 110//10 74//10 76//10
f 123//9 73//9 75//9
f 109//8 72//8 74//8
f 122//7 71//7 73//7
f 108//6 70//6 72//6
f 121//5 69//5 71//5
f 107//4 68//4 70//4
f 120//3 66//3 69//3
f 106//2 67//2 68//2
f 119//1 65//1 66//1
f 1//34 2//34 5//34
f 2//34 3//34 5//34
f 3//34 4//34 5//34
f 5//34 6//34 7//34
f 7//34 8//34 9//34
f 9//34 10//34 11//34
f 11//34 12//34 13//34
f 13//34 14//34 15//34
f 15//34 16//34 13//34
f 16//34 17//34 13//34
f 17//34 18//34 19//34
f 19//34 20//34 21//34
f 21//34 22//34 25//34
f 22//34 23//34 25//34
f 23//34 24//34 25//34
f 25//34 26//34 29//34
f 26//34 27//34 29//34
f 27//34 28//34 29//34
f 29//34 30//34 31//34
f 31//34 32//34 29//34
f 32//34 1//34 29//34
f 5//34 7//34 9//34
f 9//34 11//34 13//34
f 17//34 19//34 25//34
f 19//34 21//34 25//34
f 1//34 5//34 17//34
f 5//34 9//34 17//34
f 9//34 13//34 17//34
f 25//34 29//34 1//34
f 2//34 1//34 98//34
f 3//34 2//34 97//34
f 3//34 99//34 100//34
f 4//34 100//34 101//34
f 5//34 101//34 102//34
f 6//34 102//34 103//34
f 7//34 103//34 104//34
f 8//34 104//34 105//34
f 9//34 105//34 106//34
f 10//34 106//34 107//34
f 11//34 107//34 108//34
f 12//34 108//34 109//34
f 13//34 109//34 110//34
f 14//34 110//34 111//34
f 15//34 111//34 112//34
f 16//34 112//34 113//34
f 17//34 113//34 114//34
f 18//34 114//34 115//34
f 20//34 19//34 115//34
f 21//34 20//34 116//34
f 22//34 21//34 117//34
f 23//34 22//34 118//34
f 24//34 23//34 119//34
f 25//34 24//34 120//34
f 26//34 25//34 121//34
f 27//34 26//34 122//34
f 28//34 27//34 123//34
f 29//34 28//34 124//34
f 30//34 29//34 125//34
f 31//34 30//34 126//34
f 32//34 31//34 127//34
f 1//34 32//34 128//34
f 189//32 160//32 130//32
f 188//31 159//31 129//31
f 187//30 158//30 160//30
f 186//29 157//29 159//29
f 185//28 156//28 158//28
f 184//27 155//27 157//27
f 183//26 154//26 156//26
f 182//25 153//25 155//25
f 181//24 152//24 131//24
f 180//23 151//23 154//23
f 179//22 150//22 153//22
f 178//21 149//21 152//21
f 177//20 148//20 151//20
f 176//19 147//19 150//19
f 175//18 146//18 149//18
f 174//17 145//17 148//17
f 173//16 144//16 147//16
f 202//15 201//15 146//15
f 171//14 142//14 145//14
f 170//13 141//13 144//13
f 140//35 201//35 205//35
f 192//11 131//11 142//11
f 168//10 139//10 141//10
f 169//34 197//34 206//34
f 166//8 137//8 139//8
f 165//7 136//7 199//7
f 164//6 135//6 137//6
f 163//5 134//5 136//5
f 162//4 133//4 135//4
f 161//3 132//3 134//3
f 191//2 130//2 133//2
f 190//1 129//1 132//1
f 65//1 190//1 161//1
f 67//2 191//2 162//2
f 66//3 161//3 163//3
f 68//4 162//4 164//4
f 69//5 163//5 165//5
f 70//6 164//6 166//6
f 71//7 165//7 200//7
f 72//8 166//8 168//8
f 73//9 200//9 169//9
f 74//10 168//10 170//10
f 77//11 192//11 171//11
f 75//12 169//12 202//12
f 76//13 170//13 173//13
f 78//14 171//14 174//14
f 79//15 202//15 175//15
f 80//16 173//16 176//16
f 81//17 174//17 177//17
f 82//18 175//18 178//18
f 83//19 176//19 179//19
f 84//20 177//20 180//20
f 85//21 178//21 181//21
f 86//22 179//22 182//22
f 87//23 180//23 183//23
f 88//24 181//24 192//24
f 89//25 182//25 184//25
f 90//26 183//26 185//26
f 91//27 184//27 186//27
f 92//28 185//28 187//28
f 93//29 186//29 188//29
f 94//30 187//30 189//30
f 95//31 188//31 190//31
f 96//32 189//32 191//32
f 197//12 193//12 205//12
f 204//9 203//9 193//9
f 196//36 198//36 194//36
f 140//35 193//35 203//35
f 167//37 172//37 198//37
f 169//34 200//34 204//34
f 167//48 200//48 199//48
f 143//49 201//49 202//49
f 195//50 203//50 204//50
f 194//51 198//51 206//51
f 198//52 172//52 202//52
f 143//53 194//53 205//53
f 195//54 138//54 199//54
f 196//55 204//55 200//55
f 195//56 194//56 143//56
f 143//57 172//57 167//57
